<svg width="74" height="74" viewBox="0 0 74 74" fill="none" xmlns="http://www.w3.org/2000/svg">
<path d="M37.1775 61.6665C42.0486 61.6665 46.7457 60.8612 51.2688 59.2505C55.7919 57.6398 59.895 55.2566 63.5781 52.1009C64.2889 51.4924 64.6766 50.7485 64.7412 49.8694C64.8058 48.9904 64.515 48.2879 63.8689 47.7619C63.2227 47.236 62.5119 46.973 61.7366 46.973C60.9612 46.973 60.2181 47.236 59.5073 47.7619C59.055 48.0906 58.6188 48.3865 58.1988 48.6495C57.7788 48.9124 57.3427 49.1754 56.8904 49.4384L52.9165 41.9437V31.7864H55.9211C56.3605 31.7864 56.745 31.6174 57.0745 31.2793C57.4041 30.9412 57.5688 30.5467 57.5688 30.0959C57.5688 29.6451 57.4041 29.2553 57.0745 28.9266C56.745 28.5979 56.3605 28.4336 55.9211 28.4336H34.2102L27.6194 16.8957C27.3794 16.452 27.0314 16.0945 26.5754 15.8233C26.1193 15.5521 25.6273 15.4165 25.0993 15.4165H16.667C16.3439 15.4165 16.1177 15.5973 15.9885 15.9589C15.8593 16.3205 15.9562 16.5999 16.2793 16.7971L17.8301 17.8819L12.6931 23.4042C12.2408 23.8733 12.0146 24.4157 12.0146 25.0314C12.0146 25.6471 12.2408 26.1894 12.6931 26.6585L13.0808 27.053C13.4809 27.462 13.9525 27.6958 14.4955 27.7542C15.0385 27.8127 15.5685 27.6775 16.0854 27.3488L21.1255 23.7987V41.9437L17.2485 49.4384C16.7316 49.1754 16.2308 48.8795 15.7462 48.5508C15.2616 48.2221 14.7931 47.8934 14.3408 47.5647C13.6946 47.0388 12.9839 46.8087 12.2085 46.8744C11.4331 46.9401 10.7565 47.2205 10.1788 47.7155C9.52882 48.2724 9.21999 48.9742 9.25229 49.8209C9.2846 50.6676 9.62384 51.3619 10.27 51.9037C14.0823 55.1251 18.2849 57.5576 22.8776 59.2012C27.4703 60.8447 32.2369 61.6665 37.1775 61.6665ZM37.2633 55.8483C34.6463 55.8483 31.9809 55.5689 29.2671 55.0101C26.5532 54.4512 23.8393 53.4158 21.1255 51.9037L25.584 44.409C27.5871 45.198 29.5312 45.7896 31.4165 46.1841C33.3018 46.5786 35.17 46.7758 37.021 46.7758C38.8948 46.7758 40.7687 46.5786 42.6426 46.1841C44.5164 45.7896 46.4549 45.198 48.458 44.409L52.9165 51.9037C50.2026 53.3501 47.5695 54.3691 45.0172 54.9608C42.4649 55.5524 39.8802 55.8483 37.2633 55.8483Z" fill="white"/>
</svg>
