<svg width="74" height="79" viewBox="0 0 74 79" fill="none" xmlns="http://www.w3.org/2000/svg">
<path d="M34.2547 45.1019L34.4741 47.3237C34.5057 47.7204 34.6514 48.0454 34.9111 48.2985C35.1709 48.5518 35.4897 48.6784 35.8675 48.6784H38.1325C38.5103 48.6784 38.8291 48.5518 39.0889 48.2985C39.3486 48.0454 39.4943 47.7204 39.5259 47.3237L39.7453 45.1019C40.3541 44.9373 40.9243 44.6979 41.456 44.3834C41.9877 44.069 42.4413 43.6797 42.8169 43.2155L44.6846 44.127C45.0048 44.2916 45.3332 44.3248 45.6699 44.2266C46.0065 44.1284 46.271 43.9074 46.4634 43.5637L47.596 41.4811C47.7817 41.1393 47.8394 40.7919 47.7689 40.439C47.6983 40.086 47.5221 39.7835 47.2401 39.5314L45.5621 38.2211C45.7835 37.5501 45.8942 36.8791 45.8942 36.2081C45.8942 35.5371 45.7835 34.8661 45.5621 34.1951L47.2401 32.8847C47.5221 32.6327 47.6983 32.3302 47.7689 31.9772C47.8394 31.6243 47.7817 31.2769 47.596 30.9351L46.4634 28.8525C46.271 28.5088 46.0065 28.2878 45.6699 28.1896C45.3332 28.0914 45.0048 28.1246 44.6846 28.2892L42.8169 29.2007C42.4413 28.7365 41.9877 28.3472 41.456 28.0327C40.9243 27.7183 40.3541 27.4788 39.7453 27.3143L39.5259 25.0925C39.4943 24.6958 39.3486 24.3708 39.0889 24.1176C38.8291 23.8644 38.5103 23.7378 38.1325 23.7378H35.8675C35.4897 23.7378 35.1709 23.8644 34.9111 24.1176C34.6514 24.3708 34.5057 24.6958 34.4741 25.0925L34.2547 27.3143C33.6459 27.4788 33.0757 27.7183 32.544 28.0327C32.0123 28.3472 31.5587 28.7365 31.1831 29.2007L29.3154 28.2892C28.9952 28.1246 28.6668 28.0914 28.3301 28.1896C27.9935 28.2878 27.729 28.5088 27.5366 28.8525L26.4041 30.9351C26.2183 31.2769 26.1606 31.6243 26.2312 31.9772C26.3017 32.3302 26.4779 32.6327 26.7599 32.8847L28.4379 34.1951C28.2165 34.8661 28.1058 35.5371 28.1058 36.2081C28.1058 36.8791 28.2165 37.5501 28.4379 38.2211L26.7599 39.5314C26.4779 39.7835 26.3017 40.086 26.2312 40.439C26.1606 40.7919 26.2183 41.1393 26.4041 41.4811L27.5366 43.5637C27.729 43.9074 27.9935 44.1284 28.3301 44.2266C28.6668 44.3248 28.9952 44.2916 29.3154 44.127L31.1831 43.2155C31.5587 43.6797 32.0123 44.069 32.544 44.3834C33.0757 44.6979 33.6459 44.9373 34.2547 45.1019ZM36.9982 41.747C35.5566 41.747 34.3317 41.2083 33.3237 40.1309C32.3157 39.0536 31.8117 37.7453 31.8117 36.2062C31.8117 34.6671 32.3163 33.3595 33.3254 32.2834C34.3346 31.2073 35.5601 30.6692 37.0018 30.6692C38.4434 30.6692 39.6683 31.2079 40.6763 32.2853C41.6843 33.3626 42.1883 34.6709 42.1883 36.21C42.1883 37.7491 41.6837 39.0567 40.6746 40.1328C39.6654 41.2089 38.4399 41.747 36.9982 41.747ZM20.0417 57.5026C17.1126 54.6499 14.8386 51.3803 13.2199 47.694C11.6011 44.0078 10.7917 40.1715 10.7917 36.1852C10.7917 28.4196 13.3398 21.8189 18.4359 16.383C23.5319 10.947 29.7199 8.229 37 8.229C42.9888 8.229 48.3441 10.1397 53.0659 13.961C57.7877 17.7822 60.8542 22.7398 62.2655 28.8335L65.868 44.0232C66.099 44.9617 65.9358 45.814 65.3784 46.5799C64.821 47.3459 64.0779 47.7288 63.1489 47.7288H57.0416V58.2368C57.0416 59.8732 56.4958 61.274 55.4043 62.4392C54.3128 63.6045 53.0006 64.1872 51.4678 64.1872H44.7083V68.3018C44.7083 69.0012 44.4865 69.5876 44.0431 70.0608C43.5997 70.5339 43.0502 70.7705 42.3948 70.7705C41.7392 70.7705 41.1901 70.5339 40.7474 70.0608C40.3047 69.5876 40.0833 69.0012 40.0833 68.3018V62.2406C40.0833 61.3819 40.3504 60.6687 40.8845 60.1012C41.4187 59.5336 42.0806 59.2498 42.8702 59.2498H51.4678C51.7446 59.2498 51.9719 59.1548 52.1498 58.9649C52.3277 58.7749 52.4167 58.5323 52.4167 58.2368V45.7666C52.4167 44.9236 52.6837 44.217 53.2179 43.6468C53.752 43.0765 54.4139 42.7914 55.2035 42.7914H60.7417L57.8125 30.0362C56.6306 25.0227 54.1026 20.9577 50.2287 17.8412C46.3548 14.7247 41.9452 13.1664 37 13.1664C31.0389 13.1664 25.9514 15.3914 21.7375 19.8413C17.5236 24.2912 15.4167 29.7025 15.4167 36.0752C15.4167 39.3614 16.0462 42.4834 17.3052 45.441C18.5642 48.3986 20.35 51.0276 22.6625 53.328L24.6667 55.2998V68.3018C24.6667 69.0012 24.445 69.5876 24.0015 70.0608C23.5581 70.5339 23.0087 70.7705 22.3532 70.7705C21.6977 70.7705 21.1486 70.5339 20.7059 70.0608C20.2631 69.5876 20.0417 69.0012 20.0417 68.3018V57.5026Z" fill="white"/>
</svg>
