<svg width="75" height="80" viewBox="0 0 75 80" fill="none" xmlns="http://www.w3.org/2000/svg">
<path d="M31.9739 47.0281L32.2677 49.8154C32.3101 50.3131 32.5052 50.7207 32.8531 51.0384C33.201 51.3561 33.6279 51.5149 34.1339 51.5149H37.1675C37.6735 51.5149 38.1005 51.3561 38.4484 51.0384C38.7962 50.7207 38.9913 50.3131 39.0337 49.8154L39.3276 47.0281C40.1429 46.8216 40.9066 46.5211 41.6186 46.1267C42.3308 45.7323 42.9383 45.2438 43.4413 44.6614L45.9428 45.805C46.3716 46.0115 46.8115 46.0531 47.2624 45.9299C47.7132 45.8067 48.0675 45.5295 48.3252 45.0982L49.842 42.4856C50.0908 42.0567 50.168 41.6209 50.0735 41.1782C49.9791 40.7354 49.7431 40.3559 49.3654 40.0397L47.118 38.3958C47.4145 37.554 47.5628 36.7122 47.5628 35.8704C47.5628 35.0286 47.4145 34.1868 47.118 33.345L49.3654 31.7011C49.7431 31.3849 49.9791 31.0054 50.0735 30.5626C50.168 30.1199 50.0908 29.6841 49.842 29.2552L48.3252 26.6426C48.0675 26.2113 47.7132 25.9341 47.2624 25.8109C46.8115 25.6877 46.3716 25.7293 45.9428 25.9358L43.4413 27.0794C42.9383 26.497 42.3308 26.0085 41.6186 25.6141C40.9066 25.2197 40.1429 24.9192 39.3276 24.7127L39.0337 21.9254C38.9913 21.4277 38.7962 21.0201 38.4484 20.7024C38.1005 20.3847 37.6735 20.2259 37.1675 20.2259H34.1339C33.6279 20.2259 33.201 20.3847 32.8531 20.7024C32.5052 21.0201 32.3101 21.4277 32.2677 21.9254L31.9739 24.7127C31.1586 24.9192 30.3949 25.2197 29.6828 25.6141C28.9707 26.0085 28.3631 26.497 27.8602 27.0794L25.3587 25.9358C24.9298 25.7293 24.49 25.6877 24.0391 25.8109C23.5882 25.9341 23.2339 26.2113 22.9763 26.6426L21.4595 29.2552C21.2107 29.6841 21.1335 30.1199 21.2279 30.5626C21.3223 31.0054 21.5584 31.3849 21.936 31.7011L24.1834 33.345C23.8869 34.1868 23.7387 35.0286 23.7387 35.8704C23.7387 36.7122 23.8869 37.554 24.1834 38.3958L21.936 40.0397C21.5584 40.3559 21.3223 40.7354 21.2279 41.1782C21.1335 41.6209 21.2107 42.0567 21.4595 42.4856L22.9763 45.0982C23.2339 45.5295 23.5882 45.8067 24.0391 45.9299C24.49 46.0531 24.9298 46.0115 25.3587 45.805L27.8602 44.6614C28.3631 45.2438 28.9707 45.7323 29.6828 46.1267C30.3949 46.5211 31.1586 46.8216 31.9739 47.0281ZM35.6483 42.8192C33.7175 42.8192 32.0771 42.1434 30.727 40.7918C29.377 39.4402 28.702 37.7989 28.702 35.868C28.702 33.9372 29.3778 32.2967 30.7294 30.9467C32.0809 29.5967 33.7222 28.9216 35.6531 28.9216C37.5839 28.9216 39.2244 29.5974 40.5745 30.949C41.9245 32.3006 42.5995 33.9419 42.5995 35.8728C42.5995 37.8036 41.9237 39.4441 40.5721 40.7941C39.2205 42.1441 37.5793 42.8192 35.6483 42.8192ZM12.9384 62.5852C9.01535 59.0063 5.96982 54.9046 3.80181 50.28C1.63381 45.6554 0.549805 40.8427 0.549805 35.8417C0.549805 26.0995 3.96241 17.8186 10.7876 10.999C17.6128 4.17935 25.9005 0.769531 35.6507 0.769531C43.6715 0.769531 50.8439 3.16652 57.1679 7.96049C63.4918 12.7545 67.5988 18.9739 69.4889 26.6187L74.3139 45.6747C74.6232 46.8522 74.4046 47.9214 73.6581 48.8822C72.9116 49.8432 71.9163 50.3236 70.6722 50.3236H62.4926V63.5063C62.4926 65.5592 61.7616 67.3165 60.2997 68.7784C58.8378 70.2403 57.0805 70.9713 55.0276 70.9713H45.9745V76.1332C45.9745 77.0107 45.6775 77.7463 45.0836 78.3399C44.4897 78.9335 43.7538 79.2303 42.876 79.2303C41.998 79.2303 41.2626 78.9335 40.6697 78.3399C40.0767 77.7463 39.7803 77.0107 39.7803 76.1332V68.5292C39.7803 67.4519 40.1379 66.5573 40.8533 65.8452C41.5687 65.1331 42.4552 64.7771 43.5127 64.7771H55.0276C55.3982 64.7771 55.7027 64.6579 55.941 64.4197C56.1792 64.1814 56.2984 63.8769 56.2984 63.5063V47.8619C56.2984 46.8044 56.6561 45.9179 57.3714 45.2025C58.0868 44.4871 58.9733 44.1295 60.0309 44.1295H67.4481L63.5251 28.1275C61.9421 21.8379 58.5564 16.7382 53.368 12.8285C48.1796 8.91864 42.2739 6.96372 35.6507 6.96372C27.667 6.96372 20.8532 9.755 15.2095 15.3376C9.56585 20.9201 6.744 27.7088 6.744 35.7037C6.744 39.8264 7.58711 43.743 9.27334 47.4534C10.9596 51.1639 13.3513 54.462 16.4484 57.348L19.1326 59.8217V76.1332C19.1326 77.0107 18.8356 77.7463 18.2418 78.3399C17.6479 78.9335 16.912 79.2303 16.0341 79.2303C15.1562 79.2303 14.4208 78.9335 13.8279 78.3399C13.2349 77.7463 12.9384 77.0107 12.9384 76.1332V62.5852Z" fill="white"/>
</svg>
