<svg width="74" height="74" viewBox="0 0 74 74" fill="none" xmlns="http://www.w3.org/2000/svg">
<path d="M13.875 12.3332C13.875 8.91067 16.6192 6.1665 20.0417 6.1665C23.4642 6.1665 26.2083 8.91067 26.2083 12.3332C26.2083 15.7557 23.4642 18.4998 20.0417 18.4998C16.6192 18.4998 13.875 15.7557 13.875 12.3332ZM30.8333 33.7623V27.7498C30.8333 24.3582 28.0583 21.5832 24.6667 21.5832H15.4167C12.025 21.5832 9.25 24.3582 9.25 27.7498V46.2498H15.4167V67.8332H26.2083V67.494C22.385 63.609 20.0417 58.2748 20.0417 52.4165C20.0417 44.4615 24.3892 37.4932 30.8333 33.7623ZM50.875 52.4165C50.875 57.504 46.7125 61.6665 41.625 61.6665C36.5375 61.6665 32.375 57.504 32.375 52.4165C32.375 48.994 34.2558 46.0648 37 44.4615V37.8015C30.7717 39.7748 26.2083 45.5407 26.2083 52.4165C26.2083 60.9265 33.115 67.8332 41.625 67.8332C50.135 67.8332 57.0417 60.9265 57.0417 52.4165H50.875ZM60.2483 43.1665H46.25V24.6665H40.0833V49.3332H56.9183L64.5342 60.7723L69.6525 57.3498L60.2483 43.1665Z" fill="white"/>
</svg>
