<svg width="71" height="60" viewBox="0 0 71 60" fill="none" xmlns="http://www.w3.org/2000/svg">
<path d="M18.8501 0.0209961C22.0283 0.0209961 25.0671 0.816513 27.9667 2.40754C30.8662 3.99851 33.3773 6.25204 35.5001 9.16813C37.6229 6.25204 40.134 3.99851 43.0335 2.40754C45.933 0.816513 48.9719 0.0209961 52.1501 0.0209961C57.4313 0.0209961 61.8863 1.95801 65.5151 5.83203C69.1439 9.70605 70.9583 14.4621 70.9583 20.1001C70.9583 22.1426 70.6816 24.1946 70.1282 26.2562C69.5747 28.3177 68.7762 30.3887 67.7326 32.4692C67.2894 31.7214 66.7654 31.0523 66.1609 30.4619C65.5564 29.8716 64.8786 29.3928 64.1276 29.0257C64.847 27.4685 65.3945 25.9545 65.7701 24.4838C66.1456 23.013 66.3334 21.5518 66.3334 20.1001C66.3334 15.842 64.9667 12.2539 62.2332 9.33568C59.4997 6.4175 56.1386 4.95842 52.1501 4.95842C48.4817 4.95842 45.4409 6.07885 43.0276 8.3197C40.6143 10.5606 38.1051 13.3901 35.5001 16.8084C32.895 13.3563 30.3859 10.5183 27.9726 8.29436C25.5593 6.0704 22.5184 4.95842 18.8501 4.95842C14.8615 4.95842 11.5005 6.4175 8.76696 9.33568C6.03349 12.2539 4.66675 15.842 4.66675 20.1001C4.66675 21.594 4.85452 23.0816 5.23007 24.5628C5.60562 26.0442 6.14323 27.5423 6.84289 29.0574C6.09189 29.4456 5.4199 29.9298 4.82693 30.5101C4.234 31.0903 3.7142 31.7539 3.26753 32.5009C2.22393 30.4836 1.42542 28.4337 0.872013 26.3511C0.318503 24.2685 0.041748 22.1848 0.041748 20.1001C0.041748 14.4621 1.85619 9.70605 5.48506 5.83203C9.11384 1.95801 13.5688 0.0209961 18.8501 0.0209961ZM2.71014 59.3341C1.95411 59.3341 1.32038 59.0611 0.808958 58.5152C0.297588 57.9692 0.0419023 57.2927 0.0419023 56.4856V55.3209C0.0419023 53.0969 1.10206 51.2949 3.22236 49.915C5.34272 48.535 8.13773 47.8451 11.6074 47.8451C12.2338 47.8451 12.8277 47.8672 13.389 47.9115C13.9504 47.9558 14.4939 48.0328 15.0197 48.1425C14.4335 49.1055 14.0043 50.1407 13.7321 51.2481C13.46 52.3554 13.3239 53.5278 13.3239 54.7652V59.334H2.71014V59.3341ZM21.341 59.3341C20.5383 59.3341 19.8711 59.049 19.3394 58.4788C18.8077 57.9086 18.5418 57.2019 18.5418 56.359V54.8905C18.5418 51.7465 20.1023 49.2113 23.2232 47.2848C26.344 45.3584 30.4324 44.3951 35.4884 44.3951C40.5915 44.3951 44.6957 45.3584 47.8007 47.2848C50.9058 49.2113 52.4583 51.7465 52.4583 54.8905V56.359C52.4583 57.2019 52.1912 57.9086 51.6571 58.4788C51.1229 59.049 50.4611 59.3341 49.6715 59.3341H21.341ZM57.6763 59.3341V54.7652C57.6763 53.5278 57.5297 52.3554 57.2367 51.2481C56.9435 50.1407 56.5248 49.1055 55.9805 48.1425C56.5062 48.0328 57.0488 47.9558 57.6082 47.9115C58.1676 47.8672 58.7635 47.8451 59.3958 47.8451C62.8646 47.8451 65.6589 48.535 67.7787 49.915C69.8984 51.2949 70.9583 53.0969 70.9583 55.3209V56.4856C70.9583 57.2927 70.7026 57.9692 70.1912 58.5152C69.6798 59.0611 69.0461 59.3341 68.2901 59.3341H57.6763ZM35.5001 49.3326C32.2744 49.3326 29.5152 49.7999 27.2225 50.7347C24.9298 51.6694 23.6569 52.7846 23.4039 54.0802V54.3967H47.5962V54.0802C47.3116 52.7509 46.0309 51.6273 43.7539 50.7094C41.477 49.7915 38.7258 49.3326 35.5001 49.3326ZM11.6043 44.6483C10.1457 44.6483 8.90641 44.0967 7.8866 42.9935C6.86673 41.8902 6.3568 40.5639 6.3568 39.0146C6.3568 37.4653 6.86673 36.139 7.8866 35.0358C8.90641 33.9325 10.1457 33.3808 11.6043 33.3808C13.0629 33.3808 14.3071 33.9325 15.3369 35.0358C16.3666 36.139 16.8815 37.4653 16.8815 39.0146C16.8815 40.5639 16.3647 41.8902 15.3313 42.9935C14.2979 44.0967 13.0555 44.6483 11.6043 44.6483ZM59.3958 44.6483C57.9372 44.6483 56.693 44.0967 55.6633 42.9935C54.6336 41.8902 54.1187 40.5639 54.1187 39.0146C54.1187 37.4653 54.6354 36.139 55.6689 35.0358C56.7023 33.9325 57.9446 33.3808 59.3958 33.3808C60.8545 33.3808 62.0938 33.9325 63.1136 35.0358C64.1334 36.139 64.6434 37.4653 64.6434 39.0146C64.6434 40.5639 64.1334 41.8902 63.1136 42.9935C62.0938 44.0967 60.8545 44.6483 59.3958 44.6483ZM35.5001 41.9264C33.2765 41.9264 31.3865 41.0956 29.8301 39.4339C28.2736 37.7723 27.4954 35.7546 27.4954 33.3808C27.4954 31.0071 28.2736 28.9894 29.8301 27.3278C31.3865 25.6661 33.2765 24.8353 35.5001 24.8353C37.7236 24.8353 39.6136 25.6661 41.1701 27.3278C42.7266 28.9894 43.5048 31.0071 43.5048 33.3808C43.5048 35.7546 42.7266 37.7723 41.1701 39.4339C39.6136 41.0956 37.7236 41.9264 35.5001 41.9264ZM35.5052 29.7726C34.5491 29.7726 33.7459 30.1179 33.0956 30.8084C32.4454 31.4989 32.1203 32.3545 32.1203 33.3753C32.1203 34.396 32.4437 35.2535 33.0905 35.9477C33.7372 36.6419 34.5387 36.9891 35.4949 36.9891C36.4511 36.9891 37.2543 36.6438 37.9045 35.9532C38.5548 35.2628 38.8799 34.4072 38.8799 33.3864C38.8799 32.3657 38.5565 31.5082 37.9097 30.814C37.2629 30.1198 36.4614 29.7726 35.5052 29.7726Z" fill="white" fill-opacity="0.85"/>
</svg>
